  0
SECTION
  2
BLOCKS
  0
ENDSEC
  0
SECTION
  2
ENTITIES
  0
LINE
  8
0
 10
150.695
 20
78.0608
 11
151.368
 21
78.2412
  0
LINE
  8
0
 10
151.368
 20
78.2412
 11
152
 21
78.5359
  0
LINE
  8
0
 10
152
 20
78.5359
 11
152.571
 21
78.9358
  0
LINE
  8
0
 10
152.571
 20
78.9358
 11
153.064
 21
79.4288
  0
LINE
  8
0
 10
153.064
 20
79.4288
 11
153.464
 21
80
  0
LINE
  8
0
 10
153.464
 20
80
 11
153.759
 21
80.6319
  0
LINE
  8
0
 10
153.759
 20
80.6319
 11
153.939
 21
81.3054
  0
LINE
  8
0
 10
153.939
 20
81.3054
 11
154
 21
82
  0
LINE
  8
0
 10
154
 20
82
 11
154
 21
150
  0
LINE
  8
0
 10
154
 20
150
 11
153.939
 21
150.695
  0
LINE
  8
0
 10
153.939
 20
150.695
 11
153.759
 21
151.368
  0
LINE
  8
0
 10
153.759
 20
151.368
 11
153.464
 21
152
  0
LINE
  8
0
 10
153.464
 20
152
 11
153.064
 21
152.571
  0
LINE
  8
0
 10
153.064
 20
152.571
 11
152.571
 21
153.064
  0
LINE
  8
0
 10
152.571
 20
153.064
 11
152
 21
153.464
  0
LINE
  8
0
 10
152
 20
153.464
 11
151.368
 21
153.759
  0
LINE
  8
0
 10
151.368
 20
153.759
 11
150.695
 21
153.939
  0
LINE
  8
0
 10
150.695
 20
153.939
 11
150
 21
154
  0
LINE
  8
0
 10
150
 20
154
 11
82
 21
154
  0
LINE
  8
0
 10
82
 20
154
 11
81.3054
 21
153.939
  0
LINE
  8
0
 10
81.3054
 20
153.939
 11
80.6319
 21
153.759
  0
LINE
  8
0
 10
80.6319
 20
153.759
 11
80
 21
153.464
  0
LINE
  8
0
 10
80
 20
153.464
 11
79.4288
 21
153.064
  0
LINE
  8
0
 10
79.4288
 20
153.064
 11
78.9358
 21
152.571
  0
LINE
  8
0
 10
78.9358
 20
152.571
 11
78.5359
 21
152
  0
LINE
  8
0
 10
78.5359
 20
152
 11
78.2412
 21
151.368
  0
LINE
  8
0
 10
78.2412
 20
151.368
 11
78.0608
 21
150.695
  0
LINE
  8
0
 10
78.0608
 20
150.695
 11
78
 21
150
  0
LINE
  8
0
 10
78
 20
150
 11
78
 21
122
  0
LINE
  8
0
 10
78
 20
122
 11
81
 21
122
  0
LINE
  8
0
 10
81
 20
122
 11
81
 21
110
  0
LINE
  8
0
 10
81
 20
110
 11
78
 21
110
  0
LINE
  8
0
 10
78
 20
110
 11
78
 21
82
  0
LINE
  8
0
 10
78
 20
82
 11
78.0608
 21
81.3054
  0
LINE
  8
0
 10
78.0608
 20
81.3054
 11
78.2412
 21
80.6319
  0
LINE
  8
0
 10
78.2412
 20
80.6319
 11
78.5359
 21
80
  0
LINE
  8
0
 10
78.5359
 20
80
 11
78.9358
 21
79.4288
  0
LINE
  8
0
 10
78.9358
 20
79.4288
 11
79.4288
 21
78.9358
  0
LINE
  8
0
 10
79.4288
 20
78.9358
 11
80
 21
78.5359
  0
LINE
  8
0
 10
80
 20
78.5359
 11
80.6319
 21
78.2412
  0
LINE
  8
0
 10
80.6319
 20
78.2412
 11
81.3054
 21
78.0608
  0
LINE
  8
0
 10
81.3054
 20
78.0608
 11
82
 21
78
  0
LINE
  8
0
 10
82
 20
78
 11
150
 21
78
  0
LINE
  8
0
 10
150
 20
78
 11
150.695
 21
78.0608
  0
LINE
  8
0
 10
86
 20
104
 11
85.6527
 21
104.03
  0
LINE
  8
0
 10
85.6527
 20
104.03
 11
85.3159
 21
104.121
  0
LINE
  8
0
 10
85.3159
 20
104.121
 11
85
 21
104.268
  0
LINE
  8
0
 10
85
 20
104.268
 11
84.7144
 21
104.468
  0
LINE
  8
0
 10
84.7144
 20
104.468
 11
84.4679
 21
104.714
  0
LINE
  8
0
 10
84.4679
 20
104.714
 11
84.2679
 21
105
  0
LINE
  8
0
 10
84.2679
 20
105
 11
84.1206
 21
105.316
  0
LINE
  8
0
 10
84.1206
 20
105.316
 11
84.0304
 21
105.653
  0
LINE
  8
0
 10
84.0304
 20
105.653
 11
84
 21
106
  0
LINE
  8
0
 10
84
 20
106
 11
84
 21
126
  0
LINE
  8
0
 10
84
 20
126
 11
84.0304
 21
126.347
  0
LINE
  8
0
 10
84.0304
 20
126.347
 11
84.1206
 21
126.684
  0
LINE
  8
0
 10
84.1206
 20
126.684
 11
84.2679
 21
127
  0
LINE
  8
0
 10
84.2679
 20
127
 11
84.4679
 21
127.286
  0
LINE
  8
0
 10
84.4679
 20
127.286
 11
84.7144
 21
127.532
  0
LINE
  8
0
 10
84.7144
 20
127.532
 11
85
 21
127.732
  0
LINE
  8
0
 10
85
 20
127.732
 11
85.3159
 21
127.879
  0
LINE
  8
0
 10
85.3159
 20
127.879
 11
85.6527
 21
127.97
  0
LINE
  8
0
 10
85.6527
 20
127.97
 11
86
 21
128
  0
LINE
  8
0
 10
86
 20
128
 11
146
 21
128
  0
LINE
  8
0
 10
146
 20
128
 11
146.347
 21
127.97
  0
LINE
  8
0
 10
146.347
 20
127.97
 11
146.684
 21
127.879
  0
LINE
  8
0
 10
146.684
 20
127.879
 11
147
 21
127.732
  0
LINE
  8
0
 10
147
 20
127.732
 11
147.286
 21
127.532
  0
LINE
  8
0
 10
147.286
 20
127.532
 11
147.532
 21
127.286
  0
LINE
  8
0
 10
147.532
 20
127.286
 11
147.732
 21
127
  0
LINE
  8
0
 10
147.732
 20
127
 11
147.879
 21
126.684
  0
LINE
  8
0
 10
147.879
 20
126.684
 11
147.97
 21
126.347
  0
LINE
  8
0
 10
147.97
 20
126.347
 11
148
 21
126
  0
LINE
  8
0
 10
148
 20
126
 11
148
 21
106
  0
LINE
  8
0
 10
148
 20
106
 11
147.97
 21
105.653
  0
LINE
  8
0
 10
147.97
 20
105.653
 11
147.879
 21
105.316
  0
LINE
  8
0
 10
147.879
 20
105.316
 11
147.732
 21
105
  0
LINE
  8
0
 10
147.732
 20
105
 11
147.532
 21
104.714
  0
LINE
  8
0
 10
147.532
 20
104.714
 11
147.286
 21
104.468
  0
LINE
  8
0
 10
147.286
 20
104.468
 11
147
 21
104.268
  0
LINE
  8
0
 10
147
 20
104.268
 11
146.684
 21
104.121
  0
LINE
  8
0
 10
146.684
 20
104.121
 11
146.347
 21
104.03
  0
LINE
  8
0
 10
146.347
 20
104.03
 11
146
 21
104
  0
LINE
  8
0
 10
146
 20
104
 11
86
 21
104
  0
LINE
  8
0
 10
72.6946
 20
78.0608
 11
73.3681
 21
78.2412
  0
LINE
  8
0
 10
73.3681
 20
78.2412
 11
74
 21
78.5359
  0
LINE
  8
0
 10
74
 20
78.5359
 11
74.5712
 21
78.9358
  0
LINE
  8
0
 10
74.5712
 20
78.9358
 11
75.0642
 21
79.4288
  0
LINE
  8
0
 10
75.0642
 20
79.4288
 11
75.4641
 21
80
  0
LINE
  8
0
 10
75.4641
 20
80
 11
75.7588
 21
80.6319
  0
LINE
  8
0
 10
75.7588
 20
80.6319
 11
75.9392
 21
81.3054
  0
LINE
  8
0
 10
75.9392
 20
81.3054
 11
76
 21
82
  0
LINE
  8
0
 10
76
 20
82
 11
76
 21
150
  0
LINE
  8
0
 10
76
 20
150
 11
75.9392
 21
150.695
  0
LINE
  8
0
 10
75.9392
 20
150.695
 11
75.7588
 21
151.368
  0
LINE
  8
0
 10
75.7588
 20
151.368
 11
75.4641
 21
152
  0
LINE
  8
0
 10
75.4641
 20
152
 11
75.0642
 21
152.571
  0
LINE
  8
0
 10
75.0642
 20
152.571
 11
74.5712
 21
153.064
  0
LINE
  8
0
 10
74.5712
 20
153.064
 11
74
 21
153.464
  0
LINE
  8
0
 10
74
 20
153.464
 11
73.3681
 21
153.759
  0
LINE
  8
0
 10
73.3681
 20
153.759
 11
72.6946
 21
153.939
  0
LINE
  8
0
 10
72.6946
 20
153.939
 11
72
 21
154
  0
LINE
  8
0
 10
72
 20
154
 11
4
 21
154
  0
LINE
  8
0
 10
4
 20
154
 11
3.3054
 21
153.939
  0
LINE
  8
0
 10
3.3054
 20
153.939
 11
2.63191
 21
153.759
  0
LINE
  8
0
 10
2.63191
 20
153.759
 11
2
 21
153.464
  0
LINE
  8
0
 10
2
 20
153.464
 11
1.42885
 21
153.064
  0
LINE
  8
0
 10
1.42885
 20
153.064
 11
0.935822
 21
152.571
  0
LINE
  8
0
 10
0.935822
 20
152.571
 11
0.535889
 21
152
  0
LINE
  8
0
 10
0.535889
 20
152
 11
0.241226
 21
151.368
  0
LINE
  8
0
 10
0.241226
 20
151.368
 11
0.0607605
 21
150.695
  0
LINE
  8
0
 10
0.0607605
 20
150.695
 11
0
 21
150
  0
LINE
  8
0
 10
0
 20
150
 11
0
 21
122
  0
LINE
  8
0
 10
0
 20
122
 11
3
 21
122
  0
LINE
  8
0
 10
3
 20
122
 11
3
 21
110
  0
LINE
  8
0
 10
3
 20
110
 11
0
 21
110
  0
LINE
  8
0
 10
0
 20
110
 11
0
 21
82
  0
LINE
  8
0
 10
0
 20
82
 11
0.0607605
 21
81.3054
  0
LINE
  8
0
 10
0.0607605
 20
81.3054
 11
0.241226
 21
80.6319
  0
LINE
  8
0
 10
0.241226
 20
80.6319
 11
0.535889
 21
80
  0
LINE
  8
0
 10
0.535889
 20
80
 11
0.935822
 21
79.4288
  0
LINE
  8
0
 10
0.935822
 20
79.4288
 11
1.42885
 21
78.9358
  0
LINE
  8
0
 10
1.42885
 20
78.9358
 11
2
 21
78.5359
  0
LINE
  8
0
 10
2
 20
78.5359
 11
2.63191
 21
78.2412
  0
LINE
  8
0
 10
2.63191
 20
78.2412
 11
3.3054
 21
78.0608
  0
LINE
  8
0
 10
3.3054
 20
78.0608
 11
4
 21
78
  0
LINE
  8
0
 10
4
 20
78
 11
72
 21
78
  0
LINE
  8
0
 10
72
 20
78
 11
72.6946
 21
78.0608
  0
LINE
  8
0
 10
72.6946
 20
0.0607605
 11
73.3681
 21
0.241226
  0
LINE
  8
0
 10
73.3681
 20
0.241226
 11
74
 21
0.535889
  0
LINE
  8
0
 10
74
 20
0.535889
 11
74.5712
 21
0.935822
  0
LINE
  8
0
 10
74.5712
 20
0.935822
 11
75.0642
 21
1.42885
  0
LINE
  8
0
 10
75.0642
 20
1.42885
 11
75.4641
 21
2
  0
LINE
  8
0
 10
75.4641
 20
2
 11
75.7588
 21
2.63191
  0
LINE
  8
0
 10
75.7588
 20
2.63191
 11
75.9392
 21
3.3054
  0
LINE
  8
0
 10
75.9392
 20
3.3054
 11
76
 21
4
  0
LINE
  8
0
 10
76
 20
4
 11
76
 21
72
  0
LINE
  8
0
 10
76
 20
72
 11
75.9392
 21
72.6946
  0
LINE
  8
0
 10
75.9392
 20
72.6946
 11
75.7588
 21
73.3681
  0
LINE
  8
0
 10
75.7588
 20
73.3681
 11
75.4641
 21
74
  0
LINE
  8
0
 10
75.4641
 20
74
 11
75.0642
 21
74.5712
  0
LINE
  8
0
 10
75.0642
 20
74.5712
 11
74.5712
 21
75.0642
  0
LINE
  8
0
 10
74.5712
 20
75.0642
 11
74
 21
75.4641
  0
LINE
  8
0
 10
74
 20
75.4641
 11
73.3681
 21
75.7588
  0
LINE
  8
0
 10
73.3681
 20
75.7588
 11
72.6946
 21
75.9392
  0
LINE
  8
0
 10
72.6946
 20
75.9392
 11
72
 21
76
  0
LINE
  8
0
 10
72
 20
76
 11
4
 21
76
  0
LINE
  8
0
 10
4
 20
76
 11
3.3054
 21
75.9392
  0
LINE
  8
0
 10
3.3054
 20
75.9392
 11
2.63191
 21
75.7588
  0
LINE
  8
0
 10
2.63191
 20
75.7588
 11
2
 21
75.4641
  0
LINE
  8
0
 10
2
 20
75.4641
 11
1.42885
 21
75.0642
  0
LINE
  8
0
 10
1.42885
 20
75.0642
 11
0.935822
 21
74.5712
  0
LINE
  8
0
 10
0.935822
 20
74.5712
 11
0.535889
 21
74
  0
LINE
  8
0
 10
0.535889
 20
74
 11
0.241226
 21
73.3681
  0
LINE
  8
0
 10
0.241226
 20
73.3681
 11
0.0607605
 21
72.6946
  0
LINE
  8
0
 10
0.0607605
 20
72.6946
 11
0
 21
72
  0
LINE
  8
0
 10
0
 20
72
 11
0
 21
44
  0
LINE
  8
0
 10
0
 20
44
 11
6
 21
44
  0
LINE
  8
0
 10
6
 20
44
 11
6
 21
48
  0
LINE
  8
0
 10
6
 20
48
 11
6.03038
 21
48.3473
  0
LINE
  8
0
 10
6.03038
 20
48.3473
 11
6.12061
 21
48.684
  0
LINE
  8
0
 10
6.12061
 20
48.684
 11
6.26794
 21
49
  0
LINE
  8
0
 10
6.26794
 20
49
 11
6.46791
 21
49.2856
  0
LINE
  8
0
 10
6.46791
 20
49.2856
 11
6.71442
 21
49.5321
  0
LINE
  8
0
 10
6.71442
 20
49.5321
 11
7
 21
49.732
  0
LINE
  8
0
 10
7
 20
49.732
 11
7.31595
 21
49.8794
  0
LINE
  8
0
 10
7.31595
 20
49.8794
 11
7.65269
 21
49.9696
  0
LINE
  8
0
 10
7.65269
 20
49.9696
 11
8
 21
50
  0
LINE
  8
0
 10
8
 20
50
 11
68
 21
50
  0
LINE
  8
0
 10
68
 20
50
 11
68.3473
 21
49.9696
  0
LINE
  8
0
 10
68.3473
 20
49.9696
 11
68.684
 21
49.8794
  0
LINE
  8
0
 10
68.684
 20
49.8794
 11
69
 21
49.732
  0
LINE
  8
0
 10
69
 20
49.732
 11
69.2856
 21
49.5321
  0
LINE
  8
0
 10
69.2856
 20
49.5321
 11
69.5321
 21
49.2856
  0
LINE
  8
0
 10
69.5321
 20
49.2856
 11
69.732
 21
49
  0
LINE
  8
0
 10
69.732
 20
49
 11
69.8794
 21
48.684
  0
LINE
  8
0
 10
69.8794
 20
48.684
 11
69.9696
 21
48.3473
  0
LINE
  8
0
 10
69.9696
 20
48.3473
 11
70
 21
48
  0
LINE
  8
0
 10
70
 20
48
 11
70
 21
28
  0
LINE
  8
0
 10
70
 20
28
 11
69.9696
 21
27.6527
  0
LINE
  8
0
 10
69.9696
 20
27.6527
 11
69.8794
 21
27.3159
  0
LINE
  8
0
 10
69.8794
 20
27.3159
 11
69.732
 21
27
  0
LINE
  8
0
 10
69.732
 20
27
 11
69.5321
 21
26.7144
  0
LINE
  8
0
 10
69.5321
 20
26.7144
 11
69.2856
 21
26.4679
  0
LINE
  8
0
 10
69.2856
 20
26.4679
 11
69
 21
26.2679
  0
LINE
  8
0
 10
69
 20
26.2679
 11
68.684
 21
26.1206
  0
LINE
  8
0
 10
68.684
 20
26.1206
 11
68.3473
 21
26.0304
  0
LINE
  8
0
 10
68.3473
 20
26.0304
 11
68
 21
26
  0
LINE
  8
0
 10
68
 20
26
 11
8
 21
26
  0
LINE
  8
0
 10
8
 20
26
 11
7.65269
 21
26.0304
  0
LINE
  8
0
 10
7.65269
 20
26.0304
 11
7.31595
 21
26.1206
  0
LINE
  8
0
 10
7.31595
 20
26.1206
 11
7
 21
26.2679
  0
LINE
  8
0
 10
7
 20
26.2679
 11
6.71442
 21
26.4679
  0
LINE
  8
0
 10
6.71442
 20
26.4679
 11
6.46791
 21
26.7144
  0
LINE
  8
0
 10
6.46791
 20
26.7144
 11
6.26794
 21
27
  0
LINE
  8
0
 10
6.26794
 20
27
 11
6.12061
 21
27.3159
  0
LINE
  8
0
 10
6.12061
 20
27.3159
 11
6.03038
 21
27.6527
  0
LINE
  8
0
 10
6.03038
 20
27.6527
 11
6
 21
28
  0
LINE
  8
0
 10
6
 20
28
 11
6
 21
32
  0
LINE
  8
0
 10
6
 20
32
 11
0
 21
32
  0
LINE
  8
0
 10
0
 20
32
 11
0
 21
4
  0
LINE
  8
0
 10
0
 20
4
 11
0.0607605
 21
3.3054
  0
LINE
  8
0
 10
0.0607605
 20
3.3054
 11
0.241226
 21
2.63191
  0
LINE
  8
0
 10
0.241226
 20
2.63191
 11
0.535889
 21
2
  0
LINE
  8
0
 10
0.535889
 20
2
 11
0.935822
 21
1.42885
  0
LINE
  8
0
 10
0.935822
 20
1.42885
 11
1.42885
 21
0.935822
  0
LINE
  8
0
 10
1.42885
 20
0.935822
 11
2
 21
0.535889
  0
LINE
  8
0
 10
2
 20
0.535889
 11
2.63191
 21
0.241226
  0
LINE
  8
0
 10
2.63191
 20
0.241226
 11
3.3054
 21
0.0607605
  0
LINE
  8
0
 10
3.3054
 20
0.0607605
 11
4
 21
0
  0
LINE
  8
0
 10
4
 20
0
 11
72
 21
0
  0
LINE
  8
0
 10
72
 20
0
 11
72.6946
 21
0.0607605
  0
LINE
  8
0
 10
150.695
 20
0.0607605
 11
151.368
 21
0.241226
  0
LINE
  8
0
 10
151.368
 20
0.241226
 11
152
 21
0.535889
  0
LINE
  8
0
 10
152
 20
0.535889
 11
152.571
 21
0.935822
  0
LINE
  8
0
 10
152.571
 20
0.935822
 11
153.064
 21
1.42885
  0
LINE
  8
0
 10
153.064
 20
1.42885
 11
153.464
 21
2
  0
LINE
  8
0
 10
153.464
 20
2
 11
153.759
 21
2.63191
  0
LINE
  8
0
 10
153.759
 20
2.63191
 11
153.939
 21
3.3054
  0
LINE
  8
0
 10
153.939
 20
3.3054
 11
154
 21
4
  0
LINE
  8
0
 10
154
 20
4
 11
154
 21
72
  0
LINE
  8
0
 10
154
 20
72
 11
153.939
 21
72.6946
  0
LINE
  8
0
 10
153.939
 20
72.6946
 11
153.759
 21
73.3681
  0
LINE
  8
0
 10
153.759
 20
73.3681
 11
153.464
 21
74
  0
LINE
  8
0
 10
153.464
 20
74
 11
153.064
 21
74.5712
  0
LINE
  8
0
 10
153.064
 20
74.5712
 11
152.571
 21
75.0642
  0
LINE
  8
0
 10
152.571
 20
75.0642
 11
152
 21
75.4641
  0
LINE
  8
0
 10
152
 20
75.4641
 11
151.368
 21
75.7588
  0
LINE
  8
0
 10
151.368
 20
75.7588
 11
150.695
 21
75.9392
  0
LINE
  8
0
 10
150.695
 20
75.9392
 11
150
 21
76
  0
LINE
  8
0
 10
150
 20
76
 11
82
 21
76
  0
LINE
  8
0
 10
82
 20
76
 11
81.3054
 21
75.9392
  0
LINE
  8
0
 10
81.3054
 20
75.9392
 11
80.6319
 21
75.7588
  0
LINE
  8
0
 10
80.6319
 20
75.7588
 11
80
 21
75.4641
  0
LINE
  8
0
 10
80
 20
75.4641
 11
79.4288
 21
75.0642
  0
LINE
  8
0
 10
79.4288
 20
75.0642
 11
78.9358
 21
74.5712
  0
LINE
  8
0
 10
78.9358
 20
74.5712
 11
78.5359
 21
74
  0
LINE
  8
0
 10
78.5359
 20
74
 11
78.2412
 21
73.3681
  0
LINE
  8
0
 10
78.2412
 20
73.3681
 11
78.0608
 21
72.6946
  0
LINE
  8
0
 10
78.0608
 20
72.6946
 11
78
 21
72
  0
LINE
  8
0
 10
78
 20
72
 11
78
 21
44
  0
LINE
  8
0
 10
78
 20
44
 11
84
 21
44
  0
LINE
  8
0
 10
84
 20
44
 11
84
 21
48
  0
LINE
  8
0
 10
84
 20
48
 11
84.0304
 21
48.3473
  0
LINE
  8
0
 10
84.0304
 20
48.3473
 11
84.1206
 21
48.684
  0
LINE
  8
0
 10
84.1206
 20
48.684
 11
84.2679
 21
49
  0
LINE
  8
0
 10
84.2679
 20
49
 11
84.4679
 21
49.2856
  0
LINE
  8
0
 10
84.4679
 20
49.2856
 11
84.7144
 21
49.5321
  0
LINE
  8
0
 10
84.7144
 20
49.5321
 11
85
 21
49.732
  0
LINE
  8
0
 10
85
 20
49.732
 11
85.3159
 21
49.8794
  0
LINE
  8
0
 10
85.3159
 20
49.8794
 11
85.6527
 21
49.9696
  0
LINE
  8
0
 10
85.6527
 20
49.9696
 11
86
 21
50
  0
LINE
  8
0
 10
86
 20
50
 11
146
 21
50
  0
LINE
  8
0
 10
146
 20
50
 11
146.347
 21
49.9696
  0
LINE
  8
0
 10
146.347
 20
49.9696
 11
146.684
 21
49.8794
  0
LINE
  8
0
 10
146.684
 20
49.8794
 11
147
 21
49.732
  0
LINE
  8
0
 10
147
 20
49.732
 11
147.286
 21
49.5321
  0
LINE
  8
0
 10
147.286
 20
49.5321
 11
147.532
 21
49.2856
  0
LINE
  8
0
 10
147.532
 20
49.2856
 11
147.732
 21
49
  0
LINE
  8
0
 10
147.732
 20
49
 11
147.879
 21
48.684
  0
LINE
  8
0
 10
147.879
 20
48.684
 11
147.97
 21
48.3473
  0
LINE
  8
0
 10
147.97
 20
48.3473
 11
148
 21
48
  0
LINE
  8
0
 10
148
 20
48
 11
148
 21
28
  0
LINE
  8
0
 10
148
 20
28
 11
147.97
 21
27.6527
  0
LINE
  8
0
 10
147.97
 20
27.6527
 11
147.879
 21
27.3159
  0
LINE
  8
0
 10
147.879
 20
27.3159
 11
147.732
 21
27
  0
LINE
  8
0
 10
147.732
 20
27
 11
147.532
 21
26.7144
  0
LINE
  8
0
 10
147.532
 20
26.7144
 11
147.286
 21
26.4679
  0
LINE
  8
0
 10
147.286
 20
26.4679
 11
147
 21
26.2679
  0
LINE
  8
0
 10
147
 20
26.2679
 11
146.684
 21
26.1206
  0
LINE
  8
0
 10
146.684
 20
26.1206
 11
146.347
 21
26.0304
  0
LINE
  8
0
 10
146.347
 20
26.0304
 11
146
 21
26
  0
LINE
  8
0
 10
146
 20
26
 11
86
 21
26
  0
LINE
  8
0
 10
86
 20
26
 11
85.6527
 21
26.0304
  0
LINE
  8
0
 10
85.6527
 20
26.0304
 11
85.3159
 21
26.1206
  0
LINE
  8
0
 10
85.3159
 20
26.1206
 11
85
 21
26.2679
  0
LINE
  8
0
 10
85
 20
26.2679
 11
84.7144
 21
26.4679
  0
LINE
  8
0
 10
84.7144
 20
26.4679
 11
84.4679
 21
26.7144
  0
LINE
  8
0
 10
84.4679
 20
26.7144
 11
84.2679
 21
27
  0
LINE
  8
0
 10
84.2679
 20
27
 11
84.1206
 21
27.3159
  0
LINE
  8
0
 10
84.1206
 20
27.3159
 11
84.0304
 21
27.6527
  0
LINE
  8
0
 10
84.0304
 20
27.6527
 11
84
 21
28
  0
LINE
  8
0
 10
84
 20
28
 11
84
 21
32
  0
LINE
  8
0
 10
84
 20
32
 11
78
 21
32
  0
LINE
  8
0
 10
78
 20
32
 11
78
 21
4
  0
LINE
  8
0
 10
78
 20
4
 11
78.0608
 21
3.3054
  0
LINE
  8
0
 10
78.0608
 20
3.3054
 11
78.2412
 21
2.63191
  0
LINE
  8
0
 10
78.2412
 20
2.63191
 11
78.5359
 21
2
  0
LINE
  8
0
 10
78.5359
 20
2
 11
78.9358
 21
1.42885
  0
LINE
  8
0
 10
78.9358
 20
1.42885
 11
79.4288
 21
0.935822
  0
LINE
  8
0
 10
79.4288
 20
0.935822
 11
80
 21
0.535889
  0
LINE
  8
0
 10
80
 20
0.535889
 11
80.6319
 21
0.241226
  0
LINE
  8
0
 10
80.6319
 20
0.241226
 11
81.3054
 21
0.0607605
  0
LINE
  8
0
 10
81.3054
 20
0.0607605
 11
82
 21
0
  0
LINE
  8
0
 10
82
 20
0
 11
150
 21
0
  0
LINE
  8
0
 10
150
 20
0
 11
150.695
 21
0.0607605
  0
ENDSEC
  0
SECTION
  2
OBJECTS
  0
DICTIONARY
  0
ENDSEC
  0
EOF
