<?xml version="1.0" standalone="no"?>
<!DOCTYPE svg PUBLIC "-//W3C//DTD SVG 1.1//EN" "http://www.w3.org/Graphics/SVG/1.1/DTD/svg11.dtd">
<svg width="154mm" height="154mm" viewBox="0 -154 154 154" xmlns="http://www.w3.org/2000/svg" version="1.1">
<title>OpenSCAD Model</title>
<path d="
M 150.695,-78.0608 L 151.368,-78.2412 L 152,-78.5359 L 152.571,-78.9358 L 153.064,-79.4288 L 153.464,-80
 L 153.759,-80.6319 L 153.939,-81.3054 L 154,-82 L 154,-150 L 153.939,-150.695 L 153.759,-151.368
 L 153.464,-152 L 153.064,-152.571 L 152.571,-153.064 L 152,-153.464 L 151.368,-153.759 L 150.695,-153.939
 L 150,-154 L 82,-154 L 81.3054,-153.939 L 80.6319,-153.759 L 80,-153.464 L 79.4288,-153.064
 L 78.9358,-152.571 L 78.5359,-152 L 78.2412,-151.368 L 78.0608,-150.695 L 78,-150 L 78,-122
 L 81,-122 L 81,-110 L 78,-110 L 78,-82 L 78.0608,-81.3054 L 78.2412,-80.6319
 L 78.5359,-80 L 78.9358,-79.4288 L 79.4288,-78.9358 L 80,-78.5359 L 80.6319,-78.2412 L 81.3054,-78.0608
 L 82,-78 L 150,-78 z
M 86,-104 L 85.6527,-104.03 L 85.3159,-104.121 L 85,-104.268 L 84.7144,-104.468 L 84.4679,-104.714
 L 84.2679,-105 L 84.1206,-105.316 L 84.0304,-105.653 L 84,-106 L 84,-126 L 84.0304,-126.347
 L 84.1206,-126.684 L 84.2679,-127 L 84.4679,-127.286 L 84.7144,-127.532 L 85,-127.732 L 85.3159,-127.879
 L 85.6527,-127.97 L 86,-128 L 146,-128 L 146.347,-127.97 L 146.684,-127.879 L 147,-127.732
 L 147.286,-127.532 L 147.532,-127.286 L 147.732,-127 L 147.879,-126.684 L 147.97,-126.347 L 148,-126
 L 148,-106 L 147.97,-105.653 L 147.879,-105.316 L 147.732,-105 L 147.532,-104.714 L 147.286,-104.468
 L 147,-104.268 L 146.684,-104.121 L 146.347,-104.03 L 146,-104 z
M 72.6946,-78.0608 L 73.3681,-78.2412 L 74,-78.5359 L 74.5712,-78.9358 L 75.0642,-79.4288 L 75.4641,-80
 L 75.7588,-80.6319 L 75.9392,-81.3054 L 76,-82 L 76,-150 L 75.9392,-150.695 L 75.7588,-151.368
 L 75.4641,-152 L 75.0642,-152.571 L 74.5712,-153.064 L 74,-153.464 L 73.3681,-153.759 L 72.6946,-153.939
 L 72,-154 L 4,-154 L 3.3054,-153.939 L 2.63191,-153.759 L 2,-153.464 L 1.42885,-153.064
 L 0.935822,-152.571 L 0.535889,-152 L 0.241226,-151.368 L 0.0607605,-150.695 L 0,-150 L 0,-122
 L 3,-122 L 3,-110 L 0,-110 L 0,-82 L 0.0607605,-81.3054 L 0.241226,-80.6319
 L 0.535889,-80 L 0.935822,-79.4288 L 1.42885,-78.9358 L 2,-78.5359 L 2.63191,-78.2412 L 3.3054,-78.0608
 L 4,-78 L 72,-78 z
M 72.6946,-0.0607605 L 73.3681,-0.241226 L 74,-0.535889 L 74.5712,-0.935822 L 75.0642,-1.42885 L 75.4641,-2
 L 75.7588,-2.63191 L 75.9392,-3.3054 L 76,-4 L 76,-72 L 75.9392,-72.6946 L 75.7588,-73.3681
 L 75.4641,-74 L 75.0642,-74.5712 L 74.5712,-75.0642 L 74,-75.4641 L 73.3681,-75.7588 L 72.6946,-75.9392
 L 72,-76 L 4,-76 L 3.3054,-75.9392 L 2.63191,-75.7588 L 2,-75.4641 L 1.42885,-75.0642
 L 0.935822,-74.5712 L 0.535889,-74 L 0.241226,-73.3681 L 0.0607605,-72.6946 L 0,-72 L 0,-44
 L 6,-44 L 6,-48 L 6.03038,-48.3473 L 6.12061,-48.684 L 6.26794,-49 L 6.46791,-49.2856
 L 6.71442,-49.5321 L 7,-49.732 L 7.31595,-49.8794 L 7.65269,-49.9696 L 8,-50 L 68,-50
 L 68.3473,-49.9696 L 68.684,-49.8794 L 69,-49.732 L 69.2856,-49.5321 L 69.5321,-49.2856 L 69.732,-49
 L 69.8794,-48.684 L 69.9696,-48.3473 L 70,-48 L 70,-28 L 69.9696,-27.6527 L 69.8794,-27.3159
 L 69.732,-27 L 69.5321,-26.7144 L 69.2856,-26.4679 L 69,-26.2679 L 68.684,-26.1206 L 68.3473,-26.0304
 L 68,-26 L 8,-26 L 7.65269,-26.0304 L 7.31595,-26.1206 L 7,-26.2679 L 6.71442,-26.4679
 L 6.46791,-26.7144 L 6.26794,-27 L 6.12061,-27.3159 L 6.03038,-27.6527 L 6,-28 L 6,-32
 L 0,-32 L 0,-4 L 0.0607605,-3.3054 L 0.241226,-2.63191 L 0.535889,-2 L 0.935822,-1.42885
 L 1.42885,-0.935822 L 2,-0.535889 L 2.63191,-0.241226 L 3.3054,-0.0607605 L 4,-0 L 72,-0
 z
M 150.695,-0.0607605 L 151.368,-0.241226 L 152,-0.535889 L 152.571,-0.935822 L 153.064,-1.42885 L 153.464,-2
 L 153.759,-2.63191 L 153.939,-3.3054 L 154,-4 L 154,-72 L 153.939,-72.6946 L 153.759,-73.3681
 L 153.464,-74 L 153.064,-74.5712 L 152.571,-75.0642 L 152,-75.4641 L 151.368,-75.7588 L 150.695,-75.9392
 L 150,-76 L 82,-76 L 81.3054,-75.9392 L 80.6319,-75.7588 L 80,-75.4641 L 79.4288,-75.0642
 L 78.9358,-74.5712 L 78.5359,-74 L 78.2412,-73.3681 L 78.0608,-72.6946 L 78,-72 L 78,-44
 L 84,-44 L 84,-48 L 84.0304,-48.3473 L 84.1206,-48.684 L 84.2679,-49 L 84.4679,-49.2856
 L 84.7144,-49.5321 L 85,-49.732 L 85.3159,-49.8794 L 85.6527,-49.9696 L 86,-50 L 146,-50
 L 146.347,-49.9696 L 146.684,-49.8794 L 147,-49.732 L 147.286,-49.5321 L 147.532,-49.2856 L 147.732,-49
 L 147.879,-48.684 L 147.97,-48.3473 L 148,-48 L 148,-28 L 147.97,-27.6527 L 147.879,-27.3159
 L 147.732,-27 L 147.532,-26.7144 L 147.286,-26.4679 L 147,-26.2679 L 146.684,-26.1206 L 146.347,-26.0304
 L 146,-26 L 86,-26 L 85.6527,-26.0304 L 85.3159,-26.1206 L 85,-26.2679 L 84.7144,-26.4679
 L 84.4679,-26.7144 L 84.2679,-27 L 84.1206,-27.3159 L 84.0304,-27.6527 L 84,-28 L 84,-32
 L 78,-32 L 78,-4 L 78.0608,-3.3054 L 78.2412,-2.63191 L 78.5359,-2 L 78.9358,-1.42885
 L 79.4288,-0.935822 L 80,-0.535889 L 80.6319,-0.241226 L 81.3054,-0.0607605 L 82,-0 L 150,-0
 z
" stroke="black" fill="lightgray" stroke-width="0.5"/>
</svg>
